<mxfile host="app.diagrams.net" modified="2023-03-07T05:36:24.878Z" agent="5.0 (X11; Ubuntu)" etag="FUnNIGYVibf3_foQ57-c" version="21.0.2" type="github">
  <diagram name="Page-1" id="-IggfEUnqkw6GiBvy41p">
    <mxGraphModel dx="1360" dy="795" grid="1" gridSize="10" guides="1" tooltips="1" connect="1" arrows="1" fold="1" page="1" pageScale="1" pageWidth="850" pageHeight="1100" math="0" shadow="0">
      <root>
        <mxCell id="0" />
        <mxCell id="1" parent="0" />
        <mxCell id="_OHbgcYOI-CA_nsXlt8J-18" value="Citizens" style="swimlane;childLayout=stackLayout;horizontal=1;startSize=25;horizontalStack=0;rounded=1;fontSize=14;fontStyle=0;strokeWidth=2;resizeParent=0;resizeLast=1;shadow=0;dashed=0;align=center;arcSize=4;whiteSpace=wrap;html=1;" vertex="1" parent="1">
          <mxGeometry x="10" y="40" width="160" height="195" as="geometry" />
        </mxCell>
        <mxCell id="_OHbgcYOI-CA_nsXlt8J-19" value="&lt;div&gt;-Reg ID : String&lt;br&gt;&lt;/div&gt;&lt;div&gt;+Name : String&lt;br&gt;&lt;/div&gt;&lt;div&gt;-Contact(mail) : String&lt;/div&gt;&lt;div&gt;-Contact(mob) : Long Int&lt;br&gt;&lt;/div&gt;&lt;div&gt;+DOJ : Date&lt;br&gt;&lt;/div&gt;&lt;div&gt;&lt;br&gt;&lt;/div&gt;&lt;div&gt;&lt;br&gt;&lt;/div&gt;" style="align=left;strokeColor=none;fillColor=none;spacingLeft=4;fontSize=12;verticalAlign=top;resizable=0;rotatable=0;part=1;html=1;" vertex="1" parent="_OHbgcYOI-CA_nsXlt8J-18">
          <mxGeometry y="25" width="160" height="170" as="geometry" />
        </mxCell>
        <mxCell id="_OHbgcYOI-CA_nsXlt8J-20" value="Supervisor" style="swimlane;childLayout=stackLayout;horizontal=1;startSize=25;horizontalStack=0;rounded=1;fontSize=14;fontStyle=0;strokeWidth=2;resizeParent=0;resizeLast=1;shadow=0;dashed=0;align=center;arcSize=4;whiteSpace=wrap;html=1;" vertex="1" parent="1">
          <mxGeometry x="600" y="25" width="180" height="195" as="geometry" />
        </mxCell>
        <mxCell id="_OHbgcYOI-CA_nsXlt8J-21" value="&lt;div&gt;-Sup ID : String&lt;br&gt;&lt;/div&gt;&lt;div&gt;+Name : String&lt;br&gt;&lt;/div&gt;&lt;div&gt;+Division : String&lt;br&gt;&lt;/div&gt;&lt;div&gt;+Contact(mob) : Long Int&lt;/div&gt;&lt;div&gt;+Contact(mail): String&lt;/div&gt;&lt;div&gt;&lt;br&gt;&lt;/div&gt;&lt;div&gt;&lt;br&gt;&lt;/div&gt;&lt;div&gt;+Void Update_Proj_Assess();&lt;/div&gt;&lt;div&gt;+Void Update_Status();&lt;br&gt;&lt;/div&gt;" style="align=left;strokeColor=none;fillColor=none;spacingLeft=4;fontSize=12;verticalAlign=top;resizable=0;rotatable=0;part=1;html=1;" vertex="1" parent="_OHbgcYOI-CA_nsXlt8J-20">
          <mxGeometry y="25" width="180" height="170" as="geometry" />
        </mxCell>
        <mxCell id="_OHbgcYOI-CA_nsXlt8J-22" value="Admin" style="swimlane;childLayout=stackLayout;horizontal=1;startSize=30;horizontalStack=0;rounded=1;fontSize=14;fontStyle=0;strokeWidth=2;resizeParent=0;resizeLast=1;shadow=0;dashed=0;align=center;arcSize=4;whiteSpace=wrap;html=1;" vertex="1" parent="1">
          <mxGeometry x="290" y="25" width="160" height="210" as="geometry" />
        </mxCell>
        <mxCell id="_OHbgcYOI-CA_nsXlt8J-62" value="" style="endArrow=none;html=1;rounded=0;exitX=0;exitY=0.539;exitDx=0;exitDy=0;exitPerimeter=0;entryX=1;entryY=0.539;entryDx=0;entryDy=0;entryPerimeter=0;" edge="1" parent="_OHbgcYOI-CA_nsXlt8J-22" source="_OHbgcYOI-CA_nsXlt8J-61" target="_OHbgcYOI-CA_nsXlt8J-61">
          <mxGeometry width="50" height="50" relative="1" as="geometry">
            <mxPoint x="-120" y="280" as="sourcePoint" />
            <mxPoint x="-70" y="230" as="targetPoint" />
          </mxGeometry>
        </mxCell>
        <mxCell id="_OHbgcYOI-CA_nsXlt8J-61" value="&lt;div align=&quot;left&quot;&gt;-Ad ID : String&lt;br&gt;+Name : String&lt;br&gt;&lt;/div&gt;&lt;div align=&quot;left&quot;&gt;+Contact(mob) : Long Int&lt;/div&gt;&lt;div align=&quot;left&quot;&gt;+Contact(mail):String&lt;/div&gt;&lt;div align=&quot;left&quot;&gt;&lt;br&gt;&lt;/div&gt;&lt;div align=&quot;left&quot;&gt;+Void UpdateResources();&lt;/div&gt;&lt;div align=&quot;left&quot;&gt;+Graph Generate_Stats();&lt;/div&gt;&lt;div align=&quot;left&quot;&gt;+Void Allot_supervisor();&lt;br&gt;&lt;/div&gt;" style="text;html=1;align=left;verticalAlign=middle;resizable=0;points=[];autosize=1;strokeColor=none;fillColor=none;" vertex="1" parent="_OHbgcYOI-CA_nsXlt8J-22">
          <mxGeometry y="30" width="160" height="180" as="geometry" />
        </mxCell>
        <mxCell id="_OHbgcYOI-CA_nsXlt8J-24" value="Complaint" style="swimlane;childLayout=stackLayout;horizontal=1;startSize=30;horizontalStack=0;rounded=1;fontSize=14;fontStyle=0;strokeWidth=2;resizeParent=0;resizeLast=1;shadow=0;dashed=0;align=center;arcSize=4;whiteSpace=wrap;html=1;" vertex="1" parent="1">
          <mxGeometry x="10" y="407.5" width="220" height="162.5" as="geometry" />
        </mxCell>
        <mxCell id="_OHbgcYOI-CA_nsXlt8J-63" value="" style="endArrow=none;html=1;rounded=0;exitX=0.009;exitY=0.675;exitDx=0;exitDy=0;exitPerimeter=0;entryX=0.995;entryY=0.668;entryDx=0;entryDy=0;entryPerimeter=0;" edge="1" parent="_OHbgcYOI-CA_nsXlt8J-24" source="_OHbgcYOI-CA_nsXlt8J-25" target="_OHbgcYOI-CA_nsXlt8J-25">
          <mxGeometry width="50" height="50" relative="1" as="geometry">
            <mxPoint x="30" y="132.5" as="sourcePoint" />
            <mxPoint x="80" y="82.5" as="targetPoint" />
          </mxGeometry>
        </mxCell>
        <mxCell id="_OHbgcYOI-CA_nsXlt8J-25" value="&lt;div&gt;-Compaint ID : String&lt;br&gt;&lt;/div&gt;&lt;div&gt;-Area : String&lt;br&gt;&lt;/div&gt;+Description : String&lt;br&gt;&lt;div&gt;+Date Added : Date&lt;br&gt;&lt;/div&gt;&lt;div&gt;+Date Validated : Date&lt;/div&gt;&lt;div&gt;&lt;br&gt;&lt;/div&gt;&lt;div&gt;+String Generate_Complaint_ID();&lt;/div&gt;" style="align=left;strokeColor=none;fillColor=none;spacingLeft=4;fontSize=12;verticalAlign=top;resizable=0;rotatable=0;part=1;html=1;" vertex="1" parent="_OHbgcYOI-CA_nsXlt8J-24">
          <mxGeometry y="30" width="220" height="132.5" as="geometry" />
        </mxCell>
        <mxCell id="_OHbgcYOI-CA_nsXlt8J-26" value="Project" style="swimlane;childLayout=stackLayout;horizontal=1;startSize=30;horizontalStack=0;rounded=1;fontSize=14;fontStyle=0;strokeWidth=2;resizeParent=0;resizeLast=1;shadow=0;dashed=0;align=center;arcSize=4;whiteSpace=wrap;html=1;" vertex="1" parent="1">
          <mxGeometry x="620" y="407.5" width="200" height="245" as="geometry" />
        </mxCell>
        <mxCell id="_OHbgcYOI-CA_nsXlt8J-27" value="-Project ID&lt;br&gt;-Resource Allotted&lt;br&gt;&lt;div&gt;+Division&lt;/div&gt;&lt;div&gt;-Sup Allotted&lt;/div&gt;&lt;div&gt;-Status&lt;/div&gt;&lt;div&gt;-Priority&lt;br&gt;&lt;/div&gt;&lt;div&gt;-Schedule&lt;br&gt;&lt;/div&gt;&lt;div&gt;-Date of completion&lt;/div&gt;&lt;div&gt;&lt;br&gt;&lt;/div&gt;&lt;div&gt;&lt;br&gt;&lt;/div&gt;&lt;div&gt;+String Generate_projectID();&lt;/div&gt;&lt;div&gt;+Void Add_project_assessment(); &lt;br&gt;&lt;/div&gt;+Int Get_Priority()&lt;br&gt;&lt;div&gt;&lt;br&gt;&lt;/div&gt;" style="align=left;strokeColor=none;fillColor=none;spacingLeft=4;fontSize=12;verticalAlign=top;resizable=0;rotatable=0;part=1;html=1;" vertex="1" parent="_OHbgcYOI-CA_nsXlt8J-26">
          <mxGeometry y="30" width="200" height="215" as="geometry" />
        </mxCell>
        <mxCell id="_OHbgcYOI-CA_nsXlt8J-52" value="" style="endArrow=none;html=1;rounded=0;" edge="1" parent="_OHbgcYOI-CA_nsXlt8J-26">
          <mxGeometry relative="1" as="geometry">
            <mxPoint y="165" as="sourcePoint" />
            <mxPoint x="200" y="165" as="targetPoint" />
          </mxGeometry>
        </mxCell>
        <mxCell id="_OHbgcYOI-CA_nsXlt8J-33" value="Resource" style="swimlane;childLayout=stackLayout;horizontal=1;startSize=30;horizontalStack=0;rounded=1;fontSize=14;fontStyle=0;strokeWidth=2;resizeParent=0;resizeLast=1;shadow=0;dashed=0;align=center;arcSize=4;whiteSpace=wrap;html=1;" vertex="1" parent="1">
          <mxGeometry x="280" y="407.5" width="160" height="200" as="geometry" />
        </mxCell>
        <mxCell id="_OHbgcYOI-CA_nsXlt8J-34" value="&lt;div&gt;-Avail : Int&lt;/div&gt;&lt;div&gt;-Allotted_To_Proj: List of Int&lt;/div&gt;&lt;div&gt;&lt;br&gt;&lt;/div&gt;&lt;div&gt;&lt;br&gt;&lt;/div&gt;&lt;div&gt;+Void update_avail();&lt;/div&gt;&lt;div&gt;+Int List GetListofProjs();&lt;br&gt;&lt;/div&gt;&lt;div&gt;&lt;br&gt;&lt;/div&gt;&lt;div&gt;&lt;br&gt;&lt;/div&gt;&lt;div&gt;&lt;br&gt;&lt;/div&gt;" style="align=left;strokeColor=none;fillColor=none;spacingLeft=4;fontSize=12;verticalAlign=top;resizable=0;rotatable=0;part=1;html=1;" vertex="1" parent="_OHbgcYOI-CA_nsXlt8J-33">
          <mxGeometry y="30" width="160" height="170" as="geometry" />
        </mxCell>
        <mxCell id="_OHbgcYOI-CA_nsXlt8J-39" value="" style="endArrow=none;html=1;rounded=0;" edge="1" parent="_OHbgcYOI-CA_nsXlt8J-33">
          <mxGeometry relative="1" as="geometry">
            <mxPoint y="90" as="sourcePoint" />
            <mxPoint x="160" y="90" as="targetPoint" />
          </mxGeometry>
        </mxCell>
        <mxCell id="_OHbgcYOI-CA_nsXlt8J-35" value="Scheduler" style="swimlane;childLayout=stackLayout;horizontal=1;startSize=30;horizontalStack=0;rounded=1;fontSize=14;fontStyle=0;strokeWidth=2;resizeParent=0;resizeLast=1;shadow=0;dashed=0;align=center;arcSize=4;whiteSpace=wrap;html=1;" vertex="1" parent="1">
          <mxGeometry x="40" y="690" width="160" height="175" as="geometry" />
        </mxCell>
        <mxCell id="_OHbgcYOI-CA_nsXlt8J-65" value="" style="endArrow=none;html=1;rounded=0;" edge="1" parent="_OHbgcYOI-CA_nsXlt8J-35" target="_OHbgcYOI-CA_nsXlt8J-36">
          <mxGeometry width="50" height="50" relative="1" as="geometry">
            <mxPoint y="120" as="sourcePoint" />
            <mxPoint x="50" y="70" as="targetPoint" />
            <Array as="points">
              <mxPoint x="160" y="120" />
            </Array>
          </mxGeometry>
        </mxCell>
        <mxCell id="_OHbgcYOI-CA_nsXlt8J-36" value="&lt;div&gt;-Priority : Int&lt;br&gt;&lt;/div&gt;&lt;div&gt;-DivisionID : String&lt;br&gt;&lt;/div&gt;&lt;div&gt;-List_pending_ID : Str List&lt;br&gt;&lt;/div&gt;&lt;div&gt;-Cur_proj_id : String&lt;br&gt;&lt;/div&gt;&lt;div&gt;-Temp_array : String&lt;br&gt;&lt;/div&gt;&lt;div&gt;&lt;br&gt;&lt;/div&gt;&lt;div&gt;-Void Update_List();&lt;br&gt;&lt;/div&gt;&lt;div&gt;+Int Optimal_Scheduler();&lt;br&gt;&lt;/div&gt;" style="align=left;strokeColor=none;fillColor=none;spacingLeft=4;fontSize=12;verticalAlign=top;resizable=0;rotatable=0;part=1;html=1;" vertex="1" parent="_OHbgcYOI-CA_nsXlt8J-35">
          <mxGeometry y="30" width="160" height="145" as="geometry" />
        </mxCell>
        <mxCell id="_OHbgcYOI-CA_nsXlt8J-40" value="Division" style="swimlane;childLayout=stackLayout;horizontal=1;startSize=30;horizontalStack=0;rounded=1;fontSize=14;fontStyle=0;strokeWidth=2;resizeParent=0;resizeLast=1;shadow=0;dashed=0;align=center;arcSize=4;whiteSpace=wrap;html=1;" vertex="1" parent="1">
          <mxGeometry x="300" y="760" width="160" height="170" as="geometry" />
        </mxCell>
        <mxCell id="_OHbgcYOI-CA_nsXlt8J-41" value="&lt;div&gt;+DivisionID : String&lt;br&gt;&lt;/div&gt;&lt;div&gt;+Location : String&lt;br&gt;&lt;/div&gt;&lt;div&gt;+Latitude&amp;nbsp; : Degrees&lt;br&gt;&lt;/div&gt;&lt;div&gt;+Longitude : Degrees&lt;br&gt;&lt;/div&gt;&lt;div&gt;+Radius : Double&lt;br&gt;&lt;/div&gt;" style="align=left;strokeColor=none;fillColor=none;spacingLeft=4;fontSize=12;verticalAlign=top;resizable=0;rotatable=0;part=1;html=1;" vertex="1" parent="_OHbgcYOI-CA_nsXlt8J-40">
          <mxGeometry y="30" width="160" height="140" as="geometry" />
        </mxCell>
        <mxCell id="_OHbgcYOI-CA_nsXlt8J-42" value="Repair" style="swimlane;childLayout=stackLayout;horizontal=1;startSize=30;horizontalStack=0;rounded=1;fontSize=14;fontStyle=0;strokeWidth=2;resizeParent=0;resizeLast=1;shadow=0;dashed=0;align=center;arcSize=4;whiteSpace=wrap;html=1;" vertex="1" parent="1">
          <mxGeometry x="560" y="715" width="250" height="195" as="geometry" />
        </mxCell>
        <mxCell id="_OHbgcYOI-CA_nsXlt8J-43" value="&lt;div&gt;-Division_ID&lt;br&gt;&lt;/div&gt;&lt;div&gt;-List_Ongoing_Projects&lt;/div&gt;&lt;div&gt;-List_scheduled_Projects&lt;/div&gt;&lt;div&gt;-Resources_In_Use&lt;/div&gt;&lt;div&gt;-Resources_Allotted&lt;/div&gt;&lt;div&gt;&lt;br&gt;&lt;/div&gt;&lt;div&gt;&lt;br&gt;&lt;/div&gt;&lt;div&gt;&lt;br&gt;&lt;/div&gt;&lt;div&gt;+Boolean Is_discrepancy();&lt;/div&gt;&lt;div&gt;+void Reschedule();&lt;br&gt;&lt;/div&gt;&lt;div&gt;&lt;br&gt;&lt;/div&gt;&lt;div&gt;&lt;br&gt;&lt;/div&gt;" style="align=left;strokeColor=none;fillColor=none;spacingLeft=4;fontSize=12;verticalAlign=top;resizable=0;rotatable=0;part=1;html=1;" vertex="1" parent="_OHbgcYOI-CA_nsXlt8J-42">
          <mxGeometry y="30" width="250" height="165" as="geometry" />
        </mxCell>
        <mxCell id="_OHbgcYOI-CA_nsXlt8J-66" value="" style="endArrow=none;html=1;rounded=0;exitX=0.5;exitY=1;exitDx=0;exitDy=0;entryX=0.364;entryY=-0.022;entryDx=0;entryDy=0;entryPerimeter=0;" edge="1" parent="1" source="_OHbgcYOI-CA_nsXlt8J-19" target="_OHbgcYOI-CA_nsXlt8J-24">
          <mxGeometry relative="1" as="geometry">
            <mxPoint x="100" y="320" as="sourcePoint" />
            <mxPoint x="260" y="320" as="targetPoint" />
          </mxGeometry>
        </mxCell>
        <mxCell id="_OHbgcYOI-CA_nsXlt8J-67" value="N" style="resizable=0;html=1;whiteSpace=wrap;align=right;verticalAlign=bottom;" connectable="0" vertex="1" parent="_OHbgcYOI-CA_nsXlt8J-66">
          <mxGeometry x="1" relative="1" as="geometry" />
        </mxCell>
        <mxCell id="_OHbgcYOI-CA_nsXlt8J-68" value="" style="endArrow=none;html=1;rounded=0;exitX=0.556;exitY=0.994;exitDx=0;exitDy=0;exitPerimeter=0;entryX=0.415;entryY=0.006;entryDx=0;entryDy=0;entryPerimeter=0;" edge="1" parent="1" source="_OHbgcYOI-CA_nsXlt8J-21" target="_OHbgcYOI-CA_nsXlt8J-26">
          <mxGeometry relative="1" as="geometry">
            <mxPoint x="490" y="300" as="sourcePoint" />
            <mxPoint x="702" y="400" as="targetPoint" />
          </mxGeometry>
        </mxCell>
        <mxCell id="_OHbgcYOI-CA_nsXlt8J-69" value="N" style="resizable=0;html=1;whiteSpace=wrap;align=right;verticalAlign=bottom;" connectable="0" vertex="1" parent="_OHbgcYOI-CA_nsXlt8J-68">
          <mxGeometry x="1" relative="1" as="geometry" />
        </mxCell>
        <mxCell id="_OHbgcYOI-CA_nsXlt8J-73" value="" style="endArrow=none;html=1;rounded=0;dashed=1;dashPattern=1 2;entryX=-0.02;entryY=0.202;entryDx=0;entryDy=0;entryPerimeter=0;exitX=1;exitY=0.25;exitDx=0;exitDy=0;" edge="1" parent="1" source="_OHbgcYOI-CA_nsXlt8J-34" target="_OHbgcYOI-CA_nsXlt8J-27">
          <mxGeometry relative="1" as="geometry">
            <mxPoint x="480" y="510" as="sourcePoint" />
            <mxPoint x="640" y="510" as="targetPoint" />
          </mxGeometry>
        </mxCell>
        <mxCell id="_OHbgcYOI-CA_nsXlt8J-74" value="M" style="resizable=0;html=1;whiteSpace=wrap;align=left;verticalAlign=bottom;" connectable="0" vertex="1" parent="_OHbgcYOI-CA_nsXlt8J-73">
          <mxGeometry x="-1" relative="1" as="geometry" />
        </mxCell>
        <mxCell id="_OHbgcYOI-CA_nsXlt8J-75" value="N" style="resizable=0;html=1;whiteSpace=wrap;align=right;verticalAlign=bottom;" connectable="0" vertex="1" parent="_OHbgcYOI-CA_nsXlt8J-73">
          <mxGeometry x="1" relative="1" as="geometry" />
        </mxCell>
        <mxCell id="_OHbgcYOI-CA_nsXlt8J-76" value="" style="endArrow=none;html=1;rounded=0;exitX=0.404;exitY=0.026;exitDx=0;exitDy=0;exitPerimeter=0;entryX=0.205;entryY=1.007;entryDx=0;entryDy=0;entryPerimeter=0;" edge="1" parent="1" source="_OHbgcYOI-CA_nsXlt8J-42" target="_OHbgcYOI-CA_nsXlt8J-27">
          <mxGeometry relative="1" as="geometry">
            <mxPoint x="620" y="690" as="sourcePoint" />
            <mxPoint x="780" y="690" as="targetPoint" />
          </mxGeometry>
        </mxCell>
        <mxCell id="_OHbgcYOI-CA_nsXlt8J-77" value="N" style="resizable=0;html=1;whiteSpace=wrap;align=right;verticalAlign=bottom;" connectable="0" vertex="1" parent="_OHbgcYOI-CA_nsXlt8J-76">
          <mxGeometry x="1" relative="1" as="geometry" />
        </mxCell>
        <mxCell id="_OHbgcYOI-CA_nsXlt8J-79" value="" style="endArrow=none;html=1;rounded=0;entryX=-0.016;entryY=0.358;entryDx=0;entryDy=0;entryPerimeter=0;exitX=1;exitY=0.45;exitDx=0;exitDy=0;exitPerimeter=0;" edge="1" parent="1" source="_OHbgcYOI-CA_nsXlt8J-41" target="_OHbgcYOI-CA_nsXlt8J-43">
          <mxGeometry relative="1" as="geometry">
            <mxPoint x="460" y="800" as="sourcePoint" />
            <mxPoint x="620" y="800" as="targetPoint" />
          </mxGeometry>
        </mxCell>
        <mxCell id="_OHbgcYOI-CA_nsXlt8J-80" value="1" style="resizable=0;html=1;whiteSpace=wrap;align=right;verticalAlign=bottom;" connectable="0" vertex="1" parent="_OHbgcYOI-CA_nsXlt8J-79">
          <mxGeometry x="1" relative="1" as="geometry" />
        </mxCell>
        <mxCell id="_OHbgcYOI-CA_nsXlt8J-81" value="" style="endArrow=none;html=1;rounded=0;exitX=0;exitY=0;exitDx=0;exitDy=0;" edge="1" parent="1" source="_OHbgcYOI-CA_nsXlt8J-43">
          <mxGeometry relative="1" as="geometry">
            <mxPoint x="230" y="670" as="sourcePoint" />
            <mxPoint x="200" y="750" as="targetPoint" />
          </mxGeometry>
        </mxCell>
        <mxCell id="_OHbgcYOI-CA_nsXlt8J-82" value="1" style="resizable=0;html=1;whiteSpace=wrap;align=right;verticalAlign=bottom;" connectable="0" vertex="1" parent="_OHbgcYOI-CA_nsXlt8J-81">
          <mxGeometry x="1" relative="1" as="geometry" />
        </mxCell>
        <mxCell id="_OHbgcYOI-CA_nsXlt8J-83" value="" style="endArrow=none;html=1;rounded=0;entryX=1.006;entryY=0.2;entryDx=0;entryDy=0;entryPerimeter=0;exitX=0.994;exitY=0.639;exitDx=0;exitDy=0;exitPerimeter=0;" edge="1" parent="1" source="_OHbgcYOI-CA_nsXlt8J-61" target="_OHbgcYOI-CA_nsXlt8J-40">
          <mxGeometry relative="1" as="geometry">
            <mxPoint x="450" y="168" as="sourcePoint" />
            <mxPoint x="650" y="300" as="targetPoint" />
            <Array as="points">
              <mxPoint x="510" y="168" />
              <mxPoint x="510" y="794" />
            </Array>
          </mxGeometry>
        </mxCell>
        <mxCell id="_OHbgcYOI-CA_nsXlt8J-84" value="N" style="resizable=0;html=1;whiteSpace=wrap;align=right;verticalAlign=bottom;" connectable="0" vertex="1" parent="_OHbgcYOI-CA_nsXlt8J-83">
          <mxGeometry x="1" relative="1" as="geometry" />
        </mxCell>
        <mxCell id="_OHbgcYOI-CA_nsXlt8J-85" value="" style="endArrow=none;html=1;rounded=0;entryX=0;entryY=0.412;entryDx=0;entryDy=0;entryPerimeter=0;exitX=1.006;exitY=0.344;exitDx=0;exitDy=0;exitPerimeter=0;" edge="1" parent="1" source="_OHbgcYOI-CA_nsXlt8J-61" target="_OHbgcYOI-CA_nsXlt8J-21">
          <mxGeometry relative="1" as="geometry">
            <mxPoint x="450" y="100" as="sourcePoint" />
            <mxPoint x="610" y="100" as="targetPoint" />
          </mxGeometry>
        </mxCell>
        <mxCell id="_OHbgcYOI-CA_nsXlt8J-86" value="N" style="resizable=0;html=1;whiteSpace=wrap;align=right;verticalAlign=bottom;" connectable="0" vertex="1" parent="_OHbgcYOI-CA_nsXlt8J-85">
          <mxGeometry x="1" relative="1" as="geometry" />
        </mxCell>
      </root>
    </mxGraphModel>
  </diagram>
</mxfile>
